<svg width="200" height="200" viewBox="0 0 200 200" xmlns="http://www.w3.org/2000/svg">

<defs>
  <filter id="shadow" x="-50%" y="-50%" width="200%" height="200%">
    <feDropShadow dx="0" dy="0" stdDeviation="1" flood-color="#000" flood-opacity="0.2"/>
  </filter>
</defs>
<path d="M 100.0,100.0 L 100.0,5.0 A 95.0,95.0 0 1 1 57.56674275686945,15.00341959973737 Z" fill="#178600" filter="url(#shadow)"/>
<path d="M 100.0,100.0 L 57.56674275686945,15.00341959973737 A 95.0,95.0 0 0 1 82.46749771396637,6.631850379317115 Z" fill="#222222" filter="url(#shadow)"/>
<path d="M 100.0,100.0 L 82.46749771396637,6.631850379317115 A 95.0,95.0 0 0 1 88.27425592764772,5.726425091918273 Z" fill="#888" filter="url(#shadow)"/>
<path d="M 100.0,100.0 L 88.27425592764772,5.726425091918273 A 95.0,95.0 0 0 1 94.12588799339693,5.181780188964311 Z" fill="#f1e05a" filter="url(#shadow)"/>
<path d="M 100.0,100.0 L 94.12588799339693,5.181780188964311 A 95.0,95.0 0 0 1 99.9999999999999,5.0 Z" fill="#888" filter="url(#shadow)"/>
</svg>